Simulation
nRows=24
nColumns=15
endheader
time  TH_x TH_y TH_z SC_y  SC_z  SC_x  AC_y  AC_z  AC_x  GH_y  GH_z  GH_yy  EL_x  PS_y
1.55  0.000000  0.000000  0.000000  -33.84872902706678  6.377500370310288  47.26264218473308  54.514821683614166  -12.897440783632636  -18.65875175570519  20.438053030852245  56.083703766149874  -17.788169318436747  18.2914673190221  0.000000
1.581  0.000000  0.000000  0.000000  -33.9384219110089  6.467060690874574  47.18632302684277  54.59375688714575  -12.672164887580763  -18.352717476559235  20.40642959104827  56.57239358300155  -17.883794487854132  18.24090747818419  0.000000
1.612  0.000000  0.000000  0.000000  -34.0168901530276  6.534753486403182  47.092780176955486  54.668562797130114  -12.467780284513108  -18.084503852247284  20.396573570694425  56.9684729049566  -17.989557284988525  18.1955147814204  0.000000
1.643  0.000000  0.000000  0.000000  -34.084557087507356  6.58052131992  46.98685342370011  54.738251724655804  -12.285386503185826  -17.857127793836714  20.407678171329348  57.269628924822975  -18.105649298085318  18.155265695698112  0.000000
1.674  0.000000  0.000000  0.000000  -34.1392777015598  6.604145783208768  46.8688626142472  54.80247013720027  -12.126296164316182  -17.672902100183116  20.438715383306146  57.47464740035772  -18.23244367785699  18.120317857648725  0.000000
1.705  0.000000  0.000000  0.000000  -34.18199976641927  6.605919720169642  46.74282913005458  54.860643260508915  -11.991994543195895  -17.533411822539986  20.48896919922039  57.58241958839724  -18.36973755779271  18.090685431323152  0.000000
1.736  0.000000  0.000000  0.000000  -34.21106783508817  6.585664471939161  46.60834862190717  54.91292016323383  -11.883891081184872  -17.439696880645823  20.557426695061846  57.59282983451266  -18.517491817355516  18.066545789142562  0.000000
1.767  0.000000  0.000000  0.000000  -34.2279508836934  6.543709503492484  46.46851013031556  54.959264450732675  -11.803421783967572  -17.392032511295334  20.64336697435501  57.505923585730194  -18.675077438566962  18.04788158174026  0.000000
1.798  0.000000  0.000000  0.000000  -34.23151472091386  6.479895418983152  46.32204970486558  55.00033618488307  -11.751939342990314  -17.390154092598777  20.7457215249247  57.322703853372154  -18.84198882040632  18.0348680384809  0.000000
1.829  0.000000  0.000000  0.000000  -34.22375524796783  6.394597720729314  46.171004816786215  55.03663968154451  -11.730743324401509  -17.432916554483818  20.863671388876185  57.044370897237165  -19.01710116192313  18.027460347499193  0.000000
1.8599999999999999  0.000000  0.000000  0.000000  -34.20404920659884  6.287746808549069  46.01316204644646  55.0693051664263  -11.741094778506513  -17.51862916389733  20.996032493865997  56.67302352580009  -19.199373439480137  18.025820553534587  0.000000
1.891  0.000000  0.000000  0.000000  -34.17485644455955  6.159842149226034  45.84948330524604  55.099235852832535  -11.784102166830243  -17.644654987837235  21.14184737230447  56.21091786833312  -19.387120866682636  18.02988616341623  0.000000
1.922  0.000000  0.000000  0.000000  -34.135940225459095  6.01098646609319  45.67686919724558  55.1277643337835  -11.860806136941926  -17.807939897859118  21.29985103513061  55.66104656323409  -19.578757082293897  18.039795048459304  0.000000
1.953  0.000000  0.000000  0.000000  -34.09000704640406  5.841852496078703  45.49545484337985  55.1557660200495  -11.97188728292716  -18.0046171231739  21.4690348066605  55.02632528986338  -19.772046759173673  18.055468093182146  0.000000
1.984  0.000000  0.000000  0.000000  -34.0368864866422  5.652692804650016  45.30163249246705  55.184216068059385  -12.117779217359226  -18.230797205223457  21.6482338219126  54.31011548885425  -19.964951730677797  18.076996453526117  0.000000
2.015  0.000000  0.000000  0.000000  -33.97915597134776  5.444347417626815  45.095277198596406  55.21325596392407  -12.29831719727822  -18.482170337967275  21.83667166822115  53.51532175089242  -20.154859534034625  18.10427256935728  0.000000
2.046  0.000000  0.000000  0.000000  -33.91633892073863  5.217159289972854  44.87287431880335  55.24279453377674  -12.512946654693806  -18.755024136557893  22.0335987067932  52.64508288259468  -20.339547081082824  18.137380832775985  0.000000
2.077  0.000000  0.000000  0.000000  -33.85053954057044  4.972483301906412  44.634587543676645  55.27139490396026  -12.760656982383924  -19.045519409219512  22.23877202128503  51.70182303671435  -20.51640925238485  18.176139401926964  0.000000
2.108  0.000000  0.000000  0.000000  -33.780428480777424  4.710891459265242  44.377421309261216  55.29721229830234  -13.040044185747572  -19.351177471682345  22.451677235905578  50.68835961432421  -20.683240161471605  18.220524513762925  0.000000
2.139  0.000000  0.000000  0.000000  -33.70757494500126  4.433718842114473  44.10245332435949  55.31676299573464  -13.349215536052178  -19.669958978152323  22.672399960951314  49.6068732619533  -20.83755608797302  18.270132551161595  0.000000
2.17  0.000000  0.000000  0.000000  -33.630873379816855  4.142777078865154  43.80700133430242  55.32669775549664  -13.685612815260608  -20.000230502366698  22.902052997160315  48.46010572293148  -20.978065853572026  18.32466116731849  0.000000
2.201  0.000000  0.000000  0.000000  -33.55130609506853  3.8384027776770764  43.4935101873555  55.324739090381485  -14.046028388837426  -20.340102175277522  23.14097272213534  47.25032899431462  -21.102067817868203  18.38459493468844  0.000000
2.232  0.000000  0.000000  0.000000  -33.467224095434254  3.521445174894752  43.16201802948357  55.30948591503135  -14.428661338421584  -20.687416680624217  23.38888406729992  45.980152068886206  -21.2072105796948  18.449703156264004  0.000000
2.263  0.000000  0.000000  0.000000  -33.380130025421884  3.1942746986708506  42.81595449029948  55.27795136316861  -14.831630720536406  -21.040236406224523  23.64618816827662  44.6518102908137  -21.291217797446368  18.520078922517577  0.000000
